# xmcd
#
# Track frame offsets:
#	150
#	17243
#	35006
#	54643
#	69152
#	83711
#	98935
#	117109
#	134197
#	150993
#	164264
#	179555
#	192521
#	204513
#	220196
#	231373
#	249533
#	268737
#
# Disc length: 3757 seconds
#
# Revision: 0
# Processed by: cddbd v1.4PL0 Copyright (c) Steve Scherf et al.
# Submitted via: EasyCDDAExtractor 4.5.0.2
#
DISCID=070eab12
DTITLE=Vários - Os Reis da Viola Vol. 5
DYEAR=1900
DGENRE=caipira
TTITLE0=Goiano e Paranaense - A Sereia e o Nego Dágua
TTITLE1=Lourenço e Lourival - Franguinho na Panela
TTITLE2=Tião Carreiro e Pardinho - Golpe de Mestre
TTITLE3=Tonico e Tinoco - Couro de Boi
TTITLE4=Carreiro e Carreirinho - Canoeiro
TTITLE5=Lourenço e Lourival - O Preço da Mentira
TTITLE6=Moreno e Moreninho - João Boiadeiro
TTITLE7=Goiano e Paranaense - O Doutor e o Caipira
TTITLE8=Lourenço e Lourival - A Vingança do Caçador
TTITLE9=Teodoro e Sampaio - O macaco e o Leite
TTITLE10=Jad e Jeferson - Saco de Ouro
TTITLE11=Goiano e Paranaense - O Caipira e o Lavrador
TTITLE12=Lourenço e Lourival - Burro Inocente
TTITLE13=Pedro Bento e Zé da Estrada - Mourão da Porteira
TTITLE14=Tião Carreiro e Pardinho - Boiadeiro de Palavra
TTITLE15=Jaques e Jonas - Potro Assassino
TTITLE16=Goiano e Paranaense - Sede de Mudança
TTITLE17=?
EXTD=
EXTT0=
EXTT1=
EXTT2=
EXTT3=
EXTT4=
EXTT5=
EXTT6=
EXTT7=
EXTT8=
EXTT9=
EXTT10=
EXTT11=
EXTT12=
EXTT13=
EXTT14=
EXTT15=
EXTT16=
EXTT17=
PLAYORDER=
